<?xml version="1.0" encoding="UTF-8"?>
<svg id="Ebene_2" data-name="Ebene 2" xmlns="http://www.w3.org/2000/svg" viewBox="0 0 340.59 453.75">
  <path d="m67.58,196.01c2.67-4.17,2.56-8.76,2.53-13.36,1.09,1.97,1.28,4.12,1.26,6.21-.07,8.79-3.04,16.31-10.57,21.34-6.44,4.3-13.59,5.38-21.13,3.53-4.68-1.15-8.88-3.27-12.15-6.83-1.93-2.11-3.29-4.62-4.27-7.41-1.92-5.49-1.32-10.91.26-16.2.87-2.93,2.46-5.68,4.58-8.07,2.35-2.64,4.95-4.92,8.12-6.44,5.65-2.73,11.48-4.37,17.91-3.22,3.65.65,6.81,2.13,9.81,4.15,2.03,1.36,2.56,2.63,1.96,4.99-1.08,4.27-2.14,8.54-3.22,12.81-.03.13-.16.24-.32.47-.83-1.25-1.07-2.65-1.53-3.92-1.53-4.26-3.78-7.99-7.15-11.08-2.28-2.08-4.84-3.53-7.77-4.36-3.8-1.07-7.5-.46-10.7,1.61-2.4,1.55-3.83,4.04-4.22,7.09-.43,3.3-.42,6.58.1,9.81.59,3.65,2.25,6.94,4.51,9.86,1.91,2.46,4.36,4.37,7.2,5.53,4.62,1.89,9.44,2.49,14.38,1.18,3.01-.8,5.74-2.11,7.89-4.41.91-.97,1.64-2.1,2.52-3.26Z"/>
  <path d="m78.57,167.71c.1,5.47.18,10.72.13,15.98-.02,1.68.51,2.33,2.26,2.3,5.57-.09,11.15-.07,16.73,0,1.61.02,2.2-.58,2.18-2.17-.06-4.87.03-9.74-.04-14.61-.03-1.69.55-2.33,2.27-2.29,7.61.15,6.23-.92,6.27,6.19.06,12.53-.01,25.05.09,37.58.02,2.32-.66,3.12-3.03,3.04-6.55-.23-5.48.78-5.55-5.53-.05-4.17-.07-8.35.01-12.53.04-1.75-.44-2.49-2.35-2.45-5.5.11-11,.1-16.49,0-1.89-.03-2.38.71-2.35,2.46.08,5.1-.03,10.21.07,15.31.04,1.94-.48,2.75-2.6,2.73-6.02-.03-6.02.05-6.02-6.01,0-12.6.05-25.21-.06-37.81-.02-2.34.66-3.32,3.02-2.98,1.79.26,3.7-.54,5.48.79Z"/>
  <path d="m239.69,213.4c-5.58,0-10.92-.06-16.26.03-1.91.03-2.54-.6-2.53-2.52.06-13.92.06-27.84,0-41.76,0-1.9.58-2.55,2.51-2.53,8.52.08,17.04.08,25.56,0,1.97-.02,2.53.72,2.5,2.57-.11,5.52.41,4.71-4.69,4.75-5.03.04-10.07.07-15.1-.02-1.91-.04-2.65.6-2.54,2.54.13,2.23.14,4.49,0,6.72-.11,1.9.51,2.59,2.47,2.54,5.26-.11,10.53.03,15.8-.07,1.99-.04,2.78.56,2.71,2.63-.17,5.51.67,5.01-4.93,5.05-4.49.03-8.99.06-13.48-.03-1.83-.04-2.7.44-2.59,2.46.15,2.7.12,5.41,0,8.12-.08,1.75.59,2.28,2.29,2.26,6.27-.07,12.55.04,18.82-.07,2.07-.04,2.7.7,2.66,2.69-.11,5.46.26,4.54-4.6,4.61-2.79.04-5.58,0-8.6,0Z"/>
  <path d="m186.26,183.14c0-4.87.06-9.51-.01-14.15-.03-1.72.63-2.3,2.32-2.28,6.27.07,12.55-.04,18.82.05,5.87.08,12.08,4.11,13.78,8.99,2.25,6.44,1.03,12.35-4.03,16.86-2.27,2.02-5.1,3.17-8.23,3.22-3.72.06-7.44.09-11.15.05-2.11-.02-3.05.7-2.95,3,.17,4.09,0,8.2.07,12.3.03,1.7-.6,2.34-2.31,2.29-7.54-.2-6.2,1.07-6.29-6.19-.09-7.97-.03-15.93-.03-24.13Zm15.21,5.87c1.47,0,2.94.04,4.41-.01,3.8-.13,6.92-2.81,7.27-6.2.5-4.79-1.34-7.67-5.78-8.5-3.66-.68-7.41-.2-11.12-.23-1.28,0-1.4.99-1.39,1.98,0,2.24,0,4.48,0,6.72q0,6.24,6.61,6.24Z"/>
  <path d="m151.37,183.78c0-4.87.06-9.51-.01-14.15-.03-1.72.63-2.3,2.32-2.28,6.27.07,12.55-.04,18.82.05,5.87.08,12.08,4.11,13.78,8.99,2.25,6.44,1.03,12.35-4.03,16.86-2.27,2.02-5.1,3.17-8.23,3.22-3.72.06-7.44.09-11.15.05-2.11-.02-3.05.7-2.95,3,.17,4.09,0,8.2.07,12.3.03,1.7-.6,2.34-2.31,2.29-7.54-.2-6.2,1.07-6.29-6.19-.09-7.97-.03-15.93-.03-24.13Zm15.21,5.87c1.47,0,2.94.04,4.41-.01,3.8-.13,6.92-2.81,7.27-6.2.5-4.79-1.34-7.67-5.78-8.5-3.66-.68-7.41-.2-11.12-.23-1.28,0-1.4.99-1.39,1.98,0,2.24,0,4.48,0,6.72q0,6.24,6.61,6.24Z"/>
  <g>
    <path d="m252.16,183.14c0-4.87.06-9.51-.01-14.15-.03-1.72.63-2.3,2.32-2.28,6.27.07,7.06-.04,13.33.05,5.87.08,12.08,4.11,13.78,8.99,2.25,6.44,1.03,12.35-4.03,16.86-2.27,2.02-5.1,3.17-8.23,3.22-3.72.06-1.95.09-5.66.05-2.11-.02-3.05.7-2.95,3,.17,4.09,0,8.2.07,12.3.03,1.7-.6,2.34-2.31,2.29-7.54-.2-6.2,1.07-6.29-6.19-.09-7.97-.03-15.93-.03-24.13Zm15.21,5.87c1.47,0-2.55.04-1.08-.01,3.8-.13,6.92-2.81,7.27-6.2.5-4.79-1.33-7.74-5.78-8.5-2.31-.39-3.69-.18-5.62-.23-1.28-.03-1.4.99-1.39,1.98,0,2.24,0,4.48,0,6.72q0,6.24,6.61,6.24Z"/>
    <path d="m277.7,211.63l-8.86-16.91c-.59-.89-.43-2.04.36-2.57l5.08-.02c.79-.53,1.92-.23,2.51.66l10.24,17.99c.59.89.92,2.41-.36,2.57l-5.72.02c-1.83.05-2.4-.18-3.25-1.74Z"/>
  </g>
  <path d="m148.87,205.15c-2.57,4.4-6.13,7.37-10.48,8.99-4.36,1.62-8.87,2.12-13.5.94-5.36-1.37-9.96-4.02-13.04-9.07-4.4-7.22-5.33-15.02-2.76-23.32.89-2.86,2.16-5.44,3.91-7.68,2.02-2.59,4.57-4.59,7.48-5.86,3.31-1.44,6.75-2.31,10.39-2.06,7.38.5,13.5,3.45,17.77,10.29,2.22,3.55,3.32,7.44,3.5,11.72.2,4.82-.15,9.5-2.1,13.91-.31.71-.73,1.37-1.17,2.14Zm-31.01-14.5c.43,2.67,1.38,5.16,2.37,7.61,1.2,2.99,2.7,5.8,4.59,8.36,2.29,3.1,4.87,5.69,8.53,6.78,3.32.99,6.91-.49,8.8-3.59,1.17-1.91,1.53-4.06,1.54-6.19.04-6.41-1.12-12.59-3.61-18.45-.59-1.39-1.14-2.79-1.83-4.13-2.4-4.67-5.22-8.97-9.94-11.06-6.26-2.77-11.32,1.08-11.82,8.19-.29,4.14,0,8.26,1.38,12.47Z"/>
  <g>
    <g>
      <path d="m102.97,256.74c-2.57,4.48-6.13,7.49-10.48,9.13-4.36,1.65-8.87,2.15-13.5.95-5.36-1.39-9.96-4.08-13.04-9.21-4.4-7.34-5.33-15.26-2.76-23.69.89-2.9,2.16-5.53,3.91-7.81,2.02-2.63,4.57-4.67,7.48-5.95,3.31-1.47,6.75-2.35,10.39-2.09,7.38.51,13.5,3.5,17.77,10.46,2.22,3.61,3.32,7.56,3.5,11.91.2,4.89-.15,9.65-2.1,14.13-.31.72-.73,1.39-1.17,2.17Zm-31.01-14.74c.43,2.71,1.38,5.24,2.37,7.73,1.2,3.04,2.7,5.89,4.59,8.49,2.29,3.15,4.87,5.78,8.53,6.89,3.32,1,6.91-.49,8.8-3.64,1.17-1.94,1.53-4.13,1.54-6.29.04-6.52-1.12-12.79-3.61-18.74-.59-1.41-1.14-2.83-1.83-4.2-2.4-4.75-5.22-9.12-9.94-11.24-6.26-2.81-11.32,1.1-11.82,8.32-.29,4.21,0,8.39,1.38,12.67Z"/>
      <path d="m29.55,262.21c-7.09-6.69-8.3-15.17-7.43-24.25.43-4.48,1.63-8.69,4.41-12.38,4.89-6.49,11.45-8.71,19.02-8.07,7.41.63,13.15,4.19,16.54,11.3.88,1.84,1.04,3.79,1.62,6.15-2.86,0-5.44.07-8.01-.03-1.07-.04-1.08-1.16-1.38-1.97-1.48-4.05-4.29-6.74-8.39-7.41-4.65-.76-9.12.11-12.01,4.41-3.02,4.49-3.84,9.65-3.21,15.07.54,4.65,1.86,8.84,5.67,11.83,6.32,4.97,15.85,1.89,18.01-6,.58-2.11,1.53-2.98,3.57-2.69.3.04.62,0,.93,0,5.59,0,5.71.04,3.97,5.43-2.49,7.73-8.86,12.61-16.83,13.14-5.91.4-11.6-.2-16.47-4.56Z"/>
      <path d="m197.31,234.72s-.13.08-.12.12c.01.26.01.52.07.77,1.05,4.21.17,8.27-1.56,12.02-1.78,3.86-4.8,6.66-8.89,8.35-4.78,1.98-9.62,2.03-14.44.76-4.89-1.29-8.68-4.38-11.11-8.84-1.83-3.36-2.49-7.01-2.48-10.93.01-4.24,1.15-7.99,3.74-11.14.95-1.15,3.18-2.92,5.82-3.94,1.7-.65,4.48-.68,6.32-.69,4.71-.03,9.42-1.04,14.13-1.06v-.75c-7.91,0-15.83,0-23.74,0-.61,0-1.28-.17-2.04.47,1.89.56,3.67.24,5.5.37-2.92.89-5.54,2.13-7.99,3.73-3.93,2.56-6.96,5.98-8.99,10.17-1.88,3.9-2.78,8.1-2.26,12.46.68,5.75,2.76,10.88,7.13,14.86,4.1,3.74,9.03,5.67,14.49,6.18,5.43.5,10.73-.18,15.53-2.92,5.47-3.12,9.23-7.77,11.14-13.81,1.57-4.96,1.19-10.02.46-15.07-.06-.4-.02-1.04-.71-1.1Z"/>
      <path d="m136.73,248.11c-1.24,3.21-2.53,6.25-4.73,8.83-2.9,3.4-7.12,4.31-10.48,2.15-2.23-1.43-2.91-3.84-3.47-6.15-1.76-7.25-.49-14.35,1.78-21.24,1.31-3.96,3.33-7.66,6.18-10.81.3-.34.84-.65.53-1.22-.28-.53-.85-.36-1.31-.36-1.65,0-3.29,0-4.94,0v.68c1.36,0,2.73,0,4.09,0-1.46,1.19-3.02,2-4.47,2.97-4.5,3.02-8.1,6.84-10.75,11.65-2.32,4.2-3.4,8.65-3.63,13.34-.22,4.38.3,8.71,2.34,12.66,1.37,2.66,3.38,5,6.29,5.94,6.64,2.14,11.56-.3,16.05-4.91,2.19-2.25,3.74-4.94,5.11-7.74.87-1.79,1.53-3.65,1.71-5.7-.12-.1-.17-.14-.3-.09Z"/>
      <path d="m152.96,265.14c-1.93-.6-2.9-1.83-3.05-3.85-.04-.54-.05-1.08-.05-1.61,0-11.52,0-23.04,0-34.56,0-.7-.05-1.42.11-2.09.28-1.13.76-2.16,1.98-2.49v-1.06h-17.8c-.08.55.17.67.42.77,2.52,1,2.9,1.55,2.9,4.28,0,4.63.05,9.26-.01,13.9-.05,3.21.44,6.46-.65,9.6.05.04.1.08.3.22.6,4.23.25,8.36.36,12.49.06,2.21-.44,4.08-2.95,4.69-.21.05-.36.22-.35.65h20.21c-.33-.86-.93-.78-1.42-.93Z"/>
      <rect x="133.24" y="264.22" width="21.41" height="2" rx=".37" ry=".37"/>
      <g>
        <path d="m298.74,266.63c-5.59,0-10.94-.06-16.3.03-1.91.03-2.54-.6-2.53-2.53.06-13.95.06-27.89,0-41.84,0-1.91.58-2.55,2.51-2.53,8.54.08,17.07.08,25.61,0,1.98-.02,2.54.72,2.5,2.58-.11,5.53.41,4.72-4.7,4.76-5.04.04-10.09.07-15.13-.02-1.91-.04-2.66.61-2.54,2.54.13,2.24.14,4.5,0,6.74-.12,1.9.51,2.59,2.48,2.55,5.27-.11,10.55.03,15.83-.07,1.99-.04,2.78.56,2.72,2.64-.17,5.52.67,5.02-4.94,5.06-4.5.03-9,.06-13.5-.03-1.84-.04-2.7.44-2.59,2.47.15,2.7.12,5.43,0,8.13-.08,1.75.6,2.28,2.29,2.26,6.28-.07,12.57.04,18.86-.07,2.07-.04,2.7.71,2.66,2.7-.11,5.47.26,4.55-4.61,4.62-2.79.04-5.59,0-8.61,0Z"/>
        <path d="m245.18,265.52c-1.95-.61-2.92-1.84-3.07-3.87-.04-.54-.05-1.08-.05-1.62,0-11.6,0-23.19,0-34.79,0-.7-.05-1.43.11-2.1.3-1.23.81-2.4,2.29-2.61.99-.14,1.97-.41,2.86-.15v-.82h-21.08c-.08.56.18.68.43.78,2.53,1,2.92,1.56,2.92,4.31,0,4.66.05,9.33-.02,13.99-.05,3.23.44,6.5-.65,9.66.05.04.1.08.3.23.6,4.26.26,8.42.36,12.57.06,2.23-.44,4.11-2.97,4.72-.21.05-.36.22-.35.65h20.34c-.33-.86-.94-.78-1.43-.94Z"/>
        <path d="m228.85,248.38c-1.25,3.23-2.55,6.29-4.76,8.89-2.92,3.42-7.17,4.34-10.55,2.17-2.25-1.44-2.93-3.86-3.49-6.19-1.77-7.3-.5-14.44,1.79-21.38,1.31-3.99,3.35-7.71,6.22-10.89.31-.34.84-.66.53-1.23-.28-.53-.86-.37-1.32-.37-2.02,0-4.04,0-6.06,0v.69c1.74,0,3.47,0,5.21,0-1.47,1.2-3.04,2.02-4.5,2.99-4.53,3.04-8.15,6.89-10.82,11.73-2.33,4.23-3.42,8.71-3.66,13.43-.22,4.41.3,8.77,2.35,12.74,1.38,2.68,3.4,5.03,6.33,5.98,6.68,2.15,11.64-.3,16.16-4.95,2.2-2.27,3.77-4.97,5.15-7.79.88-1.8,1.54-3.68,1.72-5.74-.12-.1-.17-.14-.3-.09Z"/>
        <g>
          <path d="m245.6,235.84c0-4.99.06-9.73-.01-14.48-.03-1.76.64-2.35,2.34-2.33,6.32.07,7.11-.04,13.43.05,5.91.08,12.17,4.2,13.89,9.2,2.27,6.59,1.03,12.64-4.06,17.25-2.29,2.07-5.14,3.25-8.29,3.3-3.75.06-1.96.09-5.71.05-2.13-.02-3.07.72-2.97,3.07.17,4.19,0,8.39.07,12.58.03,1.74-.6,2.39-2.32,2.34-7.6-.21-6.25,1.09-6.34-6.33-.09-8.15-.03-16.3-.03-24.69Zm15.33,6.01c1.48,0-2.57.04-1.09-.01,3.83-.13,6.97-2.88,7.33-6.35.5-4.9-1.34-7.92-5.83-8.69-2.33-.4-3.72-.18-5.67-.23-1.29-.03-1.41,1.01-1.41,2.02,0,2.29,0,4.59,0,6.88q0,6.39,6.66,6.38Z"/>
          <path d="m271.33,265l-8.93-17.3c-.6-.91-.43-2.09.37-2.63l5.12-.02c.8-.54,1.93-.23,2.53.68l10.32,18.4c.6.91.93,2.47-.37,2.63l-5.76.02c-1.85.06-2.42-.18-3.28-1.79Z"/>
        </g>
        <rect x="224.65" y="219.14" width="25.54" height="2" rx=".37" ry=".37"/>
        <rect x="210.25" y="219.14" width="8.64" height="2" rx=".37" ry=".37"/>
        <rect x="225.28" y="264.85" width="25.79" height="2" rx=".37" ry=".37"/>
      </g>
    </g>
    <rect x="117.99" y="219.25" width="8.14" height="2" rx=".37" ry=".37"/>
    <rect x="161.82" y="219.25" width="32.81" height="2" rx=".37" ry=".37"/>
    <path d="m197.31,234.72s-.13.08-.12.12c.01.26.01.52.07.77,1.05,4.21.17,8.27-1.56,12.02-1.78,3.86-4.8,6.66-8.89,8.35-4.78,1.98-9.62,2.03-14.44.76-4.89-1.29-8.68-4.38-11.11-8.84-1.83-3.36-2.49-7.01-2.48-10.93.01-4.24,1.15-7.99,3.74-11.14.95-1.15,3.18-2.92,5.82-3.94,1.7-.65,4.48-.68,6.32-.69,4.71-.03,9.42-1.04,14.13-1.06v-.75c-7.91,0-15.83,0-23.74,0-.61,0-1.28-.17-2.04.47,1.89.56,3.67.24,5.5.37-2.92.89-5.54,2.13-7.99,3.73-3.93,2.56-6.96,5.98-8.99,10.17-1.88,3.9-2.78,8.1-2.26,12.46.68,5.75,2.76,10.88,7.13,14.86,4.1,3.74,9.03,5.67,14.49,6.18,5.43.5,10.73-.18,15.53-2.92,5.47-3.12,9.23-7.77,11.14-13.81,1.57-4.96,1.19-10.02.46-15.07-.06-.4-.02-1.04-.71-1.1Z"/>
    <path d="m136.73,248.11c-1.24,3.21-2.53,6.25-4.73,8.83-2.9,3.4-7.12,4.31-10.48,2.15-2.23-1.43-2.91-3.84-3.47-6.15-1.76-7.25-.49-14.35,1.78-21.24,1.31-3.96,3.33-7.66,6.18-10.81.3-.34.84-.65.53-1.22-.28-.53-.85-.36-1.31-.36-1.65,0-3.29,0-4.94,0v.68c1.36,0,2.73,0,4.09,0-1.46,1.19-3.02,2-4.47,2.97-4.5,3.02-8.1,6.84-10.75,11.65-2.32,4.2-3.4,8.65-3.63,13.34-.22,4.38.3,8.71,2.34,12.66,1.37,2.66,3.38,5,6.29,5.94,6.64,2.14,11.56-.3,16.05-4.91,2.19-2.25,3.74-4.94,5.11-7.74.87-1.79,1.53-3.65,1.71-5.7-.12-.1-.17-.14-.3-.09Z"/>
    <path d="m152.96,265.14c-1.93-.6-2.9-1.83-3.05-3.85-.04-.54-.05-1.08-.05-1.61,0-11.52,0-23.04,0-34.56,0-.7-.05-1.42.11-2.09.28-1.13.76-2.16,1.98-2.49v-1.06h-17.8c-.08.55.17.67.42.77,2.52,1,2.9,1.55,2.9,4.28,0,4.63.05,9.26-.01,13.9-.05,3.21.44,6.46-.65,9.6.05.04.1.08.3.22.6,4.23.25,8.36.36,12.49.06,2.21-.44,4.08-2.95,4.69-.21.05-.36.22-.35.65h20.21c-.33-.86-.93-.78-1.42-.93Z"/>
    <rect x="133.24" y="264.22" width="21.41" height="2" rx=".37" ry=".37"/>
    <g>
      <path d="m298.74,266.63c-5.59,0-10.94-.06-16.3.03-1.91.03-2.54-.6-2.53-2.53.06-13.95.06-27.89,0-41.84,0-1.91.58-2.55,2.51-2.53,8.54.08,17.07.08,25.61,0,1.98-.02,2.54.72,2.5,2.58-.11,5.53.41,4.72-4.7,4.76-5.04.04-10.09.07-15.13-.02-1.91-.04-2.66.61-2.54,2.54.13,2.24.14,4.5,0,6.74-.12,1.9.51,2.59,2.48,2.55,5.27-.11,10.55.03,15.83-.07,1.99-.04,2.78.56,2.72,2.64-.17,5.52.67,5.02-4.94,5.06-4.5.03-9,.06-13.5-.03-1.84-.04-2.7.44-2.59,2.47.15,2.7.12,5.43,0,8.13-.08,1.75.6,2.28,2.29,2.26,6.28-.07,12.57.04,18.86-.07,2.07-.04,2.7.71,2.66,2.7-.11,5.47.26,4.55-4.61,4.62-2.79.04-5.59,0-8.61,0Z"/>
      <path d="m245.18,265.52c-1.95-.61-2.92-1.84-3.07-3.87-.04-.54-.05-1.08-.05-1.62,0-11.6,0-23.19,0-34.79,0-.7-.05-1.43.11-2.1.3-1.23.81-2.4,2.29-2.61.99-.14,1.97-.41,2.86-.15v-.82h-21.08c-.08.56.18.68.43.78,2.53,1,2.92,1.56,2.92,4.31,0,4.66.05,9.33-.02,13.99-.05,3.23.44,6.5-.65,9.66.05.04.1.08.3.23.6,4.26.26,8.42.36,12.57.06,2.23-.44,4.11-2.97,4.72-.21.05-.36.22-.35.65h20.34c-.33-.86-.94-.78-1.43-.94Z"/>
      <path d="m228.85,248.38c-1.25,3.23-2.55,6.29-4.76,8.89-2.92,3.42-7.17,4.34-10.55,2.17-2.25-1.44-2.93-3.86-3.49-6.19-1.77-7.3-.5-14.44,1.79-21.38,1.31-3.99,3.35-7.71,6.22-10.89.31-.34.84-.66.53-1.23-.28-.53-.86-.37-1.32-.37-2.02,0-4.04,0-6.06,0v.69c1.74,0,3.47,0,5.21,0-1.47,1.2-3.04,2.02-4.5,2.99-4.53,3.04-8.15,6.89-10.82,11.73-2.33,4.23-3.42,8.71-3.66,13.43-.22,4.41.3,8.77,2.35,12.74,1.38,2.68,3.4,5.03,6.33,5.98,6.68,2.15,11.64-.3,16.16-4.95,2.2-2.27,3.77-4.97,5.15-7.79.88-1.8,1.54-3.68,1.72-5.74-.12-.1-.17-.14-.3-.09Z"/>
      <g>
        <path d="m245.6,235.84c0-4.99.06-9.73-.01-14.48-.03-1.76.64-2.35,2.34-2.33,6.32.07,7.11-.04,13.43.05,5.91.08,12.17,4.2,13.89,9.2,2.27,6.59,1.03,12.64-4.06,17.25-2.29,2.07-5.14,3.25-8.29,3.3-3.75.06-1.96.09-5.71.05-2.13-.02-3.07.72-2.97,3.07.17,4.19,0,8.39.07,12.58.03,1.74-.6,2.39-2.32,2.34-7.6-.21-6.25,1.09-6.34-6.33-.09-8.15-.03-16.3-.03-24.69Zm15.33,6.01c1.48,0-2.57.04-1.09-.01,3.83-.13,6.97-2.88,7.33-6.35.5-4.9-1.34-7.92-5.83-8.69-2.33-.4-3.72-.18-5.67-.23-1.29-.03-1.41,1.01-1.41,2.02,0,2.29,0,4.59,0,6.88q0,6.39,6.66,6.38Z"/>
        <path d="m271.33,265l-8.93-17.3c-.6-.91-.43-2.09.37-2.63l5.12-.02c.8-.54,1.93-.23,2.53.68l10.32,18.4c.6.91.93,2.47-.37,2.63l-5.76.02c-1.85.06-2.42-.18-3.28-1.79Z"/>
      </g>
      <rect x="224.65" y="219.14" width="25.54" height="2" rx=".37" ry=".37"/>
      <rect x="210.25" y="219.14" width="8.64" height="2" rx=".37" ry=".37"/>
      <rect x="225.28" y="264.85" width="25.79" height="2" rx=".37" ry=".37"/>
    </g>
  </g>
</svg>