<?xml version="1.0" encoding="UTF-8"?>
<svg id="Ebene_2" data-name="Ebene 2" xmlns="http://www.w3.org/2000/svg" viewBox="0 0 340.59 453.75">
  <defs>
    <style>
      .cls-1 {
        fill: #fff;
      }
    </style>
  </defs>
  <path class="cls-1" d="m173.01,176.47c-.87.08-1.8,141.3.26,142.09,1.73.67,49.01-73.72,48.12-74.29s-14.76,19.47-26.9,18.81c-8.95-.47-15.46-3.88-18.08-25.15-2.73-22.13-2.37-61.55-3.4-61.45Z"/>
  <path class="cls-1" d="m164.98,118.88c.87.08,1.8,141.3-.26,142.09-1.73.67-49.01-73.72-48.12-74.29s14.76,19.47,26.9,18.81c8.95-.47,15.46-3.88,18.08-25.15,2.73-22.13,2.37-61.55,3.4-61.45Z"/>
</svg>