<?xml version="1.0" encoding="UTF-8"?>
<svg id="Ebene_2" data-name="Ebene 2" xmlns="http://www.w3.org/2000/svg" viewBox="0 0 340.59 453.75">
  <defs>
    <style>
      .cls-1 {
        fill: #fff;
      }
    </style>
  </defs>
  <g>
    <path class="cls-1" d="m60.18,208.17c2.24-3.5,2.15-7.34,2.12-11.2.91,1.65,1.07,3.45,1.06,5.21-.06,7.37-2.55,13.67-8.86,17.88-5.4,3.61-11.39,4.51-17.71,2.95-3.92-.97-7.44-2.74-10.18-5.73-1.62-1.77-2.76-3.87-3.58-6.21-1.61-4.6-1.1-9.14.22-13.58.73-2.45,2.06-4.76,3.84-6.76,1.97-2.21,4.15-4.12,6.81-5.4,4.74-2.28,9.62-3.66,15.01-2.7,3.06.55,5.7,1.78,8.23,3.48,1.7,1.14,2.14,2.21,1.64,4.19-.9,3.58-1.8,7.16-2.7,10.73-.03.11-.13.2-.27.39-.7-1.05-.9-2.22-1.29-3.29-1.28-3.57-3.17-6.7-5.99-9.28-1.91-1.75-4.05-2.96-6.51-3.65-3.19-.9-6.29-.39-8.97,1.35-2.01,1.3-3.21,3.38-3.54,5.94-.36,2.76-.35,5.51.09,8.22.49,3.06,1.88,5.81,3.78,8.26,1.6,2.06,3.66,3.66,6.03,4.63,3.87,1.58,7.91,2.09,12.05.99,2.53-.67,4.81-1.77,6.61-3.7.76-.82,1.38-1.76,2.11-2.73Z"/>
    <path class="cls-1" d="m69.39,184.45c.09,4.58.15,8.99.11,13.39-.01,1.41.43,1.95,1.9,1.93,4.67-.07,9.35-.06,14.02,0,1.35.02,1.84-.48,1.83-1.82-.05-4.08.03-8.17-.04-12.25-.02-1.42.46-1.95,1.9-1.92,6.37.13,5.22-.77,5.25,5.19.05,10.5,0,21,.08,31.49.02,1.94-.55,2.62-2.54,2.55-5.49-.19-4.59.65-4.65-4.63-.04-3.5-.06-7,.01-10.5.03-1.47-.37-2.09-1.97-2.06-4.61.09-9.22.08-13.82,0-1.59-.03-2,.59-1.97,2.06.07,4.28-.03,8.55.05,12.83.03,1.63-.4,2.3-2.18,2.29-5.05-.03-5.05.04-5.05-5.03,0-10.56.04-21.13-.05-31.69-.02-1.96.55-2.78,2.53-2.49,1.5.22,3.1-.45,4.59.66Z"/>
    <path class="cls-1" d="m204.43,222.75c-4.67,0-9.15-.05-13.63.03-1.6.03-2.13-.5-2.12-2.12.05-11.67.05-23.33,0-35,0-1.6.48-2.13,2.1-2.12,7.14.07,14.28.07,21.42,0,1.65-.02,2.12.6,2.09,2.16-.1,4.63.34,3.95-3.93,3.98-4.22.03-8.44.06-12.66-.02-1.6-.03-2.22.51-2.13,2.13.11,1.87.11,3.76,0,5.64-.1,1.59.43,2.17,2.07,2.13,4.41-.09,8.83.03,13.24-.06,1.67-.03,2.33.47,2.27,2.21-.15,4.62.56,4.2-4.13,4.23-3.76.03-7.53.05-11.29-.03-1.54-.03-2.26.37-2.17,2.07.13,2.26.1,4.54,0,6.8-.06,1.47.5,1.91,1.92,1.89,5.26-.06,10.52.04,15.77-.06,1.73-.03,2.26.59,2.23,2.26-.09,4.58.22,3.81-3.85,3.86-2.34.03-4.67,0-7.21,0Z"/>
    <path class="cls-1" d="m159.65,197.39c0-4.08.05-7.97-.01-11.86-.02-1.44.53-1.92,1.95-1.91,5.26.06,10.52-.03,15.78.04,4.92.07,10.12,3.44,11.55,7.53,1.88,5.39.86,10.35-3.38,14.13-1.9,1.7-4.28,2.66-6.9,2.7-3.12.05-6.23.07-9.35.04-1.77-.02-2.55.59-2.47,2.51.14,3.43,0,6.87.06,10.31.03,1.42-.5,1.96-1.93,1.92-6.32-.17-5.2.89-5.27-5.18-.08-6.68-.02-13.35-.02-20.23Zm12.75,4.92c1.23,0,2.47.03,3.7-.01,3.18-.11,5.8-2.36,6.09-5.2.42-4.02-1.12-6.43-4.85-7.12-3.07-.57-6.21-.17-9.32-.19-1.07,0-1.17.83-1.17,1.66,0,1.88,0,3.76,0,5.64q0,5.23,5.54,5.23Z"/>
    <path class="cls-1" d="m130.4,197.93c0-4.08.05-7.97-.01-11.86-.02-1.44.53-1.92,1.95-1.91,5.26.06,10.52-.03,15.78.04,4.92.07,10.12,3.44,11.55,7.53,1.88,5.39.86,10.35-3.38,14.13-1.9,1.7-4.28,2.66-6.9,2.7-3.12.05-6.23.07-9.35.04-1.77-.02-2.55.59-2.47,2.51.14,3.43,0,6.87.06,10.31.03,1.42-.5,1.96-1.93,1.92-6.32-.17-5.2.89-5.27-5.18-.08-6.68-.02-13.35-.02-20.23Zm12.75,4.92c1.23,0,2.47.03,3.7-.01,3.18-.11,5.8-2.36,6.09-5.2.42-4.02-1.12-6.43-4.85-7.12-3.07-.57-6.21-.17-9.32-.19-1.07,0-1.17.83-1.17,1.66,0,1.88,0,3.76,0,5.64q0,5.23,5.54,5.23Z"/>
    <g>
      <path class="cls-1" d="m214.88,197.39c0-4.08.05-7.97-.01-11.86-.02-1.44.53-1.92,1.95-1.91,5.26.06,5.92-.03,11.17.04,4.92.07,10.12,3.44,11.55,7.53,1.88,5.39.86,10.35-3.38,14.13-1.9,1.7-4.28,2.66-6.9,2.7-3.12.05-1.63.07-4.75.04-1.77-.02-2.55.59-2.47,2.51.14,3.43,0,6.87.06,10.31.03,1.42-.5,1.96-1.93,1.92-6.32-.17-5.2.89-5.27-5.18-.08-6.68-.02-13.35-.02-20.23Zm12.75,4.92c1.23,0-2.14.03-.9-.01,3.18-.11,5.8-2.36,6.09-5.2.42-4.02-1.11-6.49-4.85-7.12-1.94-.33-3.09-.15-4.71-.19-1.07-.03-1.17.83-1.17,1.66,0,1.88,0,3.76,0,5.64q0,5.23,5.54,5.23Z"/>
      <path class="cls-1" d="m236.29,221.27l-7.43-14.17c-.5-.75-.36-1.71.3-2.15h4.26c.66-.46,1.61-.21,2.1.54l8.58,15.08c.5.75.77,2.02-.3,2.15l-4.79.02c-1.54.05-2.01-.15-2.73-1.46Z"/>
    </g>
    <path class="cls-1" d="m128.31,215.84c-2.15,3.69-5.13,6.18-8.78,7.53-3.66,1.36-7.44,1.77-11.31.79-4.49-1.15-8.35-3.37-10.93-7.6-3.69-6.06-4.47-12.59-2.31-19.54.74-2.39,1.81-4.56,3.27-6.44,1.69-2.17,3.83-3.85,6.27-4.91,2.77-1.21,5.66-1.94,8.71-1.73,6.18.42,11.31,2.89,14.89,8.63,1.86,2.98,2.78,6.24,2.93,9.82.17,4.04-.13,7.96-1.76,11.66-.26.6-.62,1.14-.98,1.79Zm-25.99-12.16c.36,2.24,1.15,4.32,1.98,6.38,1.01,2.51,2.26,4.86,3.85,7.01,1.92,2.6,4.09,4.77,7.15,5.68,2.78.83,5.79-.41,7.38-3.01.98-1.6,1.28-3.41,1.29-5.19.03-5.38-.94-10.55-3.03-15.46-.49-1.16-.96-2.34-1.53-3.46-2.01-3.92-4.37-7.52-8.33-9.27-5.25-2.32-9.49.91-9.91,6.86-.25,3.47,0,6.92,1.15,10.45Z"/>
    <g>
      <g>
        <path class="cls-1" d="m89.84,259.08c-2.15,3.75-5.13,6.28-8.78,7.65-3.66,1.38-7.44,1.8-11.31.8-4.49-1.16-8.35-3.42-10.93-7.72-3.69-6.15-4.47-12.79-2.31-19.86.74-2.43,1.81-4.64,3.27-6.54,1.69-2.2,3.83-3.91,6.27-4.99,2.77-1.23,5.66-1.97,8.71-1.76,6.18.43,11.31,2.94,14.89,8.76,1.86,3.02,2.78,6.33,2.93,9.98.17,4.1-.13,8.09-1.76,11.84-.26.61-.62,1.16-.98,1.82Zm-25.99-12.35c.36,2.27,1.15,4.39,1.98,6.48,1.01,2.55,2.26,4.94,3.85,7.12,1.92,2.64,4.09,4.85,7.15,5.77,2.78.84,5.79-.41,7.38-3.05.98-1.62,1.28-3.46,1.29-5.27.03-5.46-.94-10.72-3.03-15.71-.49-1.18-.96-2.38-1.53-3.52-2.01-3.98-4.37-7.64-8.33-9.42-5.25-2.36-9.49.92-9.91,6.97-.25,3.53,0,7.03,1.15,10.62Z"/>
        <path class="cls-1" d="m28.31,263.66c-5.94-5.61-6.96-12.71-6.23-20.32.36-3.75,1.37-7.29,3.7-10.37,4.1-5.44,9.6-7.3,15.94-6.76,6.21.53,11.02,3.51,13.86,9.47.73,1.54.88,3.18,1.36,5.15-2.39,0-4.56.05-6.72-.03-.9-.03-.91-.97-1.15-1.65-1.24-3.39-3.6-5.65-7.03-6.21-3.9-.63-7.65.09-10.07,3.7-2.53,3.77-3.21,8.09-2.69,12.63.45,3.89,1.56,7.41,4.75,9.92,5.29,4.17,13.28,1.58,15.09-5.03.48-1.77,1.28-2.5,2.99-2.25.25.04.52,0,.78,0,4.69,0,4.78.03,3.33,4.55-2.08,6.48-7.42,10.57-14.11,11.02-4.95.33-9.72-.16-13.8-3.82Z"/>
        <path class="cls-1" d="m168.91,240.62s-.11.07-.1.1c.01.22,0,.44.06.65.88,3.53.14,6.94-1.31,10.07-1.49,3.23-4.03,5.58-7.45,6.99-4.01,1.66-8.07,1.71-12.1.64-4.1-1.08-7.28-3.67-9.31-7.41-1.53-2.82-2.09-5.88-2.08-9.16.01-3.55.96-6.7,3.13-9.34.79-.97,2.66-2.45,4.88-3.3,1.43-.55,3.76-.57,5.3-.58,3.95-.02,7.89-.87,11.84-.89v-.63c-6.63,0-13.27,0-19.9,0-.51,0-1.07-.15-1.71.39,1.58.47,3.08.2,4.61.31-2.45.74-4.64,1.79-6.7,3.12-3.29,2.14-5.84,5.01-7.53,8.53-1.58,3.27-2.33,6.79-1.9,10.44.57,4.82,2.31,9.11,5.97,12.45,3.44,3.14,7.57,4.76,12.14,5.18,4.55.42,8.99-.15,13.01-2.45,4.59-2.62,7.74-6.52,9.34-11.57,1.32-4.16.99-8.4.38-12.63-.05-.34-.01-.87-.6-.92Z"/>
        <path class="cls-1" d="m118.14,251.84c-1.04,2.69-2.12,5.24-3.96,7.4-2.43,2.85-5.97,3.61-8.79,1.8-1.87-1.2-2.44-3.22-2.91-5.15-1.48-6.08-.41-12.02,1.49-17.8,1.09-3.32,2.79-6.42,5.18-9.06.26-.28.7-.55.44-1.02-.24-.44-.71-.3-1.1-.3-1.38,0-2.76,0-4.14,0v.57c1.14,0,2.29,0,3.43,0-1.23,1-2.53,1.68-3.74,2.49-3.77,2.53-6.79,5.73-9.01,9.76-1.94,3.52-2.85,7.25-3.05,11.18-.18,3.67.25,7.3,1.96,10.61,1.15,2.23,2.83,4.19,5.27,4.98,5.56,1.79,9.69-.25,13.46-4.12,1.83-1.89,3.14-4.14,4.28-6.49.73-1.5,1.28-3.06,1.43-4.78-.1-.08-.15-.11-.25-.07Z"/>
        <path class="cls-1" d="m131.74,266.11c-1.62-.51-2.43-1.53-2.55-3.23-.03-.45-.05-.9-.05-1.35,0-9.65,0-19.31,0-28.96,0-.59-.04-1.19.1-1.75.23-.94.64-1.81,1.66-2.09v-.89h-14.92c-.06.46.15.56.36.65,2.11.83,2.43,1.3,2.43,3.58,0,3.88.04,7.76-.01,11.65-.04,2.69.37,5.41-.54,8.04.04.03.08.07.25.19.5,3.54.21,7.01.3,10.47.05,1.86-.37,3.42-2.47,3.93-.18.04-.3.18-.29.54h16.94c-.27-.72-.78-.65-1.19-.78Z"/>
        <rect class="cls-1" x="115.22" y="265.35" width="17.95" height="1.68" rx=".37" ry=".37"/>
        <g>
          <path class="cls-1" d="m253.92,267.36c-4.68,0-9.17-.05-13.66.03-1.6.03-2.13-.51-2.12-2.12.05-11.69.05-23.38,0-35.06,0-1.6.49-2.14,2.11-2.12,7.15.07,14.31.07,21.46,0,1.66-.02,2.13.6,2.1,2.16-.1,4.64.34,3.95-3.94,3.99-4.23.03-8.46.06-12.68-.02-1.6-.03-2.23.51-2.13,2.13.11,1.88.12,3.77,0,5.65-.1,1.59.43,2.17,2.08,2.14,4.42-.09,8.85.03,13.27-.06,1.67-.03,2.33.47,2.28,2.21-.15,4.63.56,4.21-4.14,4.24-3.77.03-7.55.05-11.32-.03-1.54-.03-2.27.37-2.17,2.07.13,2.27.1,4.55,0,6.82-.06,1.47.5,1.91,1.92,1.9,5.27-.06,10.54.04,15.8-.06,1.74-.03,2.26.59,2.23,2.26-.09,4.59.22,3.81-3.86,3.87-2.34.03-4.68,0-7.22,0Z"/>
          <path class="cls-1" d="m209.03,266.44c-1.63-.51-2.45-1.54-2.57-3.25-.03-.45-.05-.91-.05-1.36,0-9.72,0-19.44,0-29.16,0-.59-.04-1.2.1-1.76.25-1.03.68-2.01,1.92-2.19.83-.12,1.65-.34,2.4-.13v-.68h-17.67c-.06.47.15.57.36.65,2.12.84,2.44,1.31,2.44,3.61,0,3.91.04,7.82-.01,11.72-.04,2.71.37,5.45-.54,8.1.04.03.08.07.25.19.51,3.57.22,7.06.3,10.54.05,1.87-.37,3.44-2.49,3.96-.18.04-.31.18-.29.54h17.05c-.28-.72-.79-.66-1.2-.78Z"/>
          <path class="cls-1" d="m195.34,252.07c-1.05,2.7-2.13,5.27-3.99,7.45-2.44,2.87-6.01,3.64-8.85,1.81-1.88-1.21-2.45-3.24-2.93-5.19-1.49-6.12-.42-12.1,1.5-17.92,1.1-3.34,2.81-6.46,5.22-9.12.26-.28.71-.55.45-1.03-.24-.44-.72-.31-1.11-.31-1.69,0-3.39,0-5.08,0v.58c1.46,0,2.91,0,4.37,0-1.23,1.01-2.55,1.69-3.77,2.51-3.8,2.55-6.83,5.77-9.07,9.83-1.95,3.54-2.87,7.3-3.07,11.26-.18,3.7.25,7.35,1.97,10.68,1.16,2.24,2.85,4.22,5.31,5.01,5.6,1.8,9.76-.25,13.55-4.15,1.85-1.9,3.16-4.17,4.31-6.53.74-1.51,1.29-3.08,1.44-4.81-.1-.08-.15-.12-.25-.07Z"/>
          <g>
            <path class="cls-1" d="m209.38,241.56c0-4.18.05-8.16-.01-12.14-.02-1.47.53-1.97,1.96-1.95,5.3.06,5.96-.03,11.26.04,4.96.07,10.2,3.52,11.64,7.71,1.9,5.52.87,10.59-3.4,14.45-1.92,1.74-4.31,2.72-6.95,2.76-3.14.05-1.64.07-4.78.04-1.78-.02-2.57.6-2.49,2.57.14,3.51,0,7.03.06,10.54.03,1.46-.5,2-1.95,1.96-6.37-.17-5.24.92-5.31-5.3-.08-6.83-.02-13.66-.02-20.69Zm12.85,5.04c1.24,0-2.15.03-.91-.01,3.21-.11,5.84-2.41,6.14-5.32.42-4.11-1.12-6.64-4.88-7.28-1.95-.34-3.12-.15-4.75-.19-1.08-.03-1.18.85-1.18,1.69,0,1.92,0,3.84,0,5.77q0,5.35,5.58,5.35Z"/>
            <path class="cls-1" d="m230.95,265.99l-7.48-14.5c-.5-.77-.36-1.75.31-2.2h4.29c.67-.47,1.62-.21,2.12.55l8.65,15.43c.5.77.78,2.07-.31,2.2l-4.83.02c-1.55.05-2.03-.15-2.75-1.5Z"/>
          </g>
          <rect class="cls-1" x="191.83" y="227.57" width="21.41" height="1.68" rx=".37" ry=".37"/>
          <rect class="cls-1" x="179.76" y="227.57" width="7.24" height="1.68" rx=".37" ry=".37"/>
          <rect class="cls-1" x="192.35" y="265.87" width="21.62" height="1.68" rx=".37" ry=".37"/>
        </g>
      </g>
      <rect class="cls-1" x="102.43" y="227.65" width="6.82" height="1.68" rx=".37" ry=".37"/>
      <rect class="cls-1" x="139.16" y="227.65" width="27.5" height="1.68" rx=".37" ry=".37"/>
      <path class="cls-1" d="m168.91,240.62s-.11.07-.1.1c.01.22,0,.44.06.65.88,3.53.14,6.94-1.31,10.07-1.49,3.23-4.03,5.58-7.45,6.99-4.01,1.66-8.07,1.71-12.1.64-4.1-1.08-7.28-3.67-9.31-7.41-1.53-2.82-2.09-5.88-2.08-9.16.01-3.55.96-6.7,3.13-9.34.79-.97,2.66-2.45,4.88-3.3,1.43-.55,3.76-.57,5.3-.58,3.95-.02,7.89-.87,11.84-.89v-.63c-6.63,0-13.27,0-19.9,0-.51,0-1.07-.15-1.71.39,1.58.47,3.08.2,4.61.31-2.45.74-4.64,1.79-6.7,3.12-3.29,2.14-5.84,5.01-7.53,8.53-1.58,3.27-2.33,6.79-1.9,10.44.57,4.82,2.31,9.11,5.97,12.45,3.44,3.14,7.57,4.76,12.14,5.18,4.55.42,8.99-.15,13.01-2.45,4.59-2.62,7.74-6.52,9.34-11.57,1.32-4.16.99-8.4.38-12.63-.05-.34-.01-.87-.6-.92Z"/>
      <path class="cls-1" d="m118.14,251.84c-1.04,2.69-2.12,5.24-3.96,7.4-2.43,2.85-5.97,3.61-8.79,1.8-1.87-1.2-2.44-3.22-2.91-5.15-1.48-6.08-.41-12.02,1.49-17.8,1.09-3.32,2.79-6.42,5.18-9.06.26-.28.7-.55.44-1.02-.24-.44-.71-.3-1.1-.3-1.38,0-2.76,0-4.14,0v.57c1.14,0,2.29,0,3.43,0-1.23,1-2.53,1.68-3.74,2.49-3.77,2.53-6.79,5.73-9.01,9.76-1.94,3.52-2.85,7.25-3.05,11.18-.18,3.67.25,7.3,1.96,10.61,1.15,2.23,2.83,4.19,5.27,4.98,5.56,1.79,9.69-.25,13.46-4.12,1.83-1.89,3.14-4.14,4.28-6.49.73-1.5,1.28-3.06,1.43-4.78-.1-.08-.15-.11-.25-.07Z"/>
      <path class="cls-1" d="m131.74,266.11c-1.62-.51-2.43-1.53-2.55-3.23-.03-.45-.05-.9-.05-1.35,0-9.65,0-19.31,0-28.96,0-.59-.04-1.19.1-1.75.23-.94.64-1.81,1.66-2.09v-.89h-14.92c-.06.46.15.56.36.65,2.11.83,2.43,1.3,2.43,3.58,0,3.88.04,7.76-.01,11.65-.04,2.69.37,5.41-.54,8.04.04.03.08.07.25.19.5,3.54.21,7.01.3,10.47.05,1.86-.37,3.42-2.47,3.93-.18.04-.3.18-.29.54h16.94c-.27-.72-.78-.65-1.19-.78Z"/>
      <rect class="cls-1" x="115.22" y="265.35" width="17.95" height="1.68" rx=".37" ry=".37"/>
      <g>
        <path class="cls-1" d="m253.92,267.36c-4.68,0-9.17-.05-13.66.03-1.6.03-2.13-.51-2.12-2.12.05-11.69.05-23.38,0-35.06,0-1.6.49-2.14,2.11-2.12,7.15.07,14.31.07,21.46,0,1.66-.02,2.13.6,2.1,2.16-.1,4.64.34,3.95-3.94,3.99-4.23.03-8.46.06-12.68-.02-1.6-.03-2.23.51-2.13,2.13.11,1.88.12,3.77,0,5.65-.1,1.59.43,2.17,2.08,2.14,4.42-.09,8.85.03,13.27-.06,1.67-.03,2.33.47,2.28,2.21-.15,4.63.56,4.21-4.14,4.24-3.77.03-7.55.05-11.32-.03-1.54-.03-2.27.37-2.17,2.07.13,2.27.1,4.55,0,6.82-.06,1.47.5,1.91,1.92,1.9,5.27-.06,10.54.04,15.8-.06,1.74-.03,2.26.59,2.23,2.26-.09,4.59.22,3.81-3.86,3.87-2.34.03-4.68,0-7.22,0Z"/>
        <path class="cls-1" d="m209.03,266.44c-1.63-.51-2.45-1.54-2.57-3.25-.03-.45-.05-.91-.05-1.36,0-9.72,0-19.44,0-29.16,0-.59-.04-1.2.1-1.76.25-1.03.68-2.01,1.92-2.19.83-.12,1.65-.34,2.4-.13v-.68h-17.67c-.06.47.15.57.36.65,2.12.84,2.44,1.31,2.44,3.61,0,3.91.04,7.82-.01,11.72-.04,2.71.37,5.45-.54,8.1.04.03.08.07.25.19.51,3.57.22,7.06.3,10.54.05,1.87-.37,3.44-2.49,3.96-.18.04-.31.18-.29.54h17.05c-.28-.72-.79-.66-1.2-.78Z"/>
        <path class="cls-1" d="m195.34,252.07c-1.05,2.7-2.13,5.27-3.99,7.45-2.44,2.87-6.01,3.64-8.85,1.81-1.88-1.21-2.45-3.24-2.93-5.19-1.49-6.12-.42-12.1,1.5-17.92,1.1-3.34,2.81-6.46,5.22-9.12.26-.28.71-.55.45-1.03-.24-.44-.72-.31-1.11-.31-1.69,0-3.39,0-5.08,0v.58c1.46,0,2.91,0,4.37,0-1.23,1.01-2.55,1.69-3.77,2.51-3.8,2.55-6.83,5.77-9.07,9.83-1.95,3.54-2.87,7.3-3.07,11.26-.18,3.7.25,7.35,1.97,10.68,1.16,2.24,2.85,4.22,5.31,5.01,5.6,1.8,9.76-.25,13.55-4.15,1.85-1.9,3.16-4.17,4.31-6.53.74-1.51,1.29-3.08,1.44-4.81-.1-.08-.15-.12-.25-.07Z"/>
        <g>
          <path class="cls-1" d="m209.38,241.56c0-4.18.05-8.16-.01-12.14-.02-1.47.53-1.97,1.96-1.95,5.3.06,5.96-.03,11.26.04,4.96.07,10.2,3.52,11.64,7.71,1.9,5.52.87,10.59-3.4,14.45-1.92,1.74-4.31,2.72-6.95,2.76-3.14.05-1.64.07-4.78.04-1.78-.02-2.57.6-2.49,2.57.14,3.51,0,7.03.06,10.54.03,1.46-.5,2-1.95,1.96-6.37-.17-5.24.92-5.31-5.3-.08-6.83-.02-13.66-.02-20.69Zm12.85,5.04c1.24,0-2.15.03-.91-.01,3.21-.11,5.84-2.41,6.14-5.32.42-4.11-1.12-6.64-4.88-7.28-1.95-.34-3.12-.15-4.75-.19-1.08-.03-1.18.85-1.18,1.69,0,1.92,0,3.84,0,5.77q0,5.35,5.58,5.35Z"/>
          <path class="cls-1" d="m230.95,265.99l-7.48-14.5c-.5-.77-.36-1.75.31-2.2h4.29c.67-.47,1.62-.21,2.12.55l8.65,15.43c.5.77.78,2.07-.31,2.2l-4.83.02c-1.55.05-2.03-.15-2.75-1.5Z"/>
        </g>
        <rect class="cls-1" x="191.83" y="227.57" width="21.41" height="1.68" rx=".37" ry=".37"/>
        <rect class="cls-1" x="179.76" y="227.57" width="7.24" height="1.68" rx=".37" ry=".37"/>
        <rect class="cls-1" x="192.35" y="265.87" width="21.62" height="1.68" rx=".37" ry=".37"/>
      </g>
    </g>
  </g>
  <g>
    <path class="cls-1" d="m279.78,152.07c-.73.07-1.51,118.42.21,119.09,1.45.56,41.07-61.79,40.33-62.26s-12.37,16.32-22.55,15.76c-7.51-.4-12.95-3.25-15.15-21.08s-1.99-51.58-2.85-51.5Z"/>
    <path class="cls-1" d="m273.05,103.81c.73.07,1.51,118.42-.21,119.09-1.45.56-41.07-61.79-40.33-62.26s12.37,16.32,22.55,15.76c7.51-.4,12.95-3.25,15.15-21.08s1.99-51.58,2.85-51.5Z"/>
  </g>
</svg>